<?xml version="1.0"?>
<svg xmlns="http://www.w3.org/2000/svg" xmlns:xlink="http://www.w3.org/1999/xlink" version="1.1" id="Capa_1" x="0px" y="0px" width="512px" height="512px" viewBox="0 0 169.676 169.676" style="enable-background:new 0 0 169.676 169.676;" xml:space="preserve"><g><g>
	<g>
		<path d="M80.668,53.92c-4.303,0-7.336,0.383-8.981,0.758V83.26c2.027,0.63,4.427,0.758,7.591,0.758    c11.633,0,18.713-5.815,18.713-15.679C97.99,58.852,91.409,53.92,80.668,53.92z" data-original="#000000" class="active-path" data-old_color="#000000" fill="#1081E0"/>
		<path d="M84.841,0.002C37.99,0.002,0,37.982,0,84.835c0,46.854,37.99,84.839,84.841,84.839c46.846,0,84.835-37.985,84.835-84.839    C169.676,37.987,131.687,0.002,84.841,0.002z M106.204,86.921c-6.314,6.198-15.924,9.236-26.927,9.236    c-2.912,0-5.444-0.126-7.591-0.63v32.25H56.255V43.674c5.693-1.013,13.406-1.773,23.786-1.773c11.369,0,19.592,2.403,25.034,6.954    c5.05,4.177,8.345,10.876,8.345,18.843C113.424,75.793,110.89,82.376,106.204,86.921z" data-original="#000000" class="active-path" data-old_color="#000000" fill="#1081E0"/>
	</g>
</g></g> </svg>
