<?xml version="1.0"?>
<svg xmlns="http://www.w3.org/2000/svg" xmlns:xlink="http://www.w3.org/1999/xlink" version="1.1" id="Capa_1" x="0px" y="0px" viewBox="0 0 24 24" style="enable-background:new 0 0 24 24;" xml:space="preserve" width="512px" height="512px"><g><g>
	<path d="M7,21v2c0,0.552-0.448,1-1,1H4c-0.552,0-1-0.448-1-1v-2H7z" data-original="#030104" class="active-path" data-old_color="#030104" fill="#1081E0"/>
	<path d="M21,21v2c0,0.552-0.448,1-1,1h-2c-0.552,0-1-0.448-1-1v-2H21z" data-original="#030104" class="active-path" data-old_color="#030104" fill="#1081E0"/>
	<path d="M21,6c-0.385-2.552-1.807-3.852-4-4.478V1c0-0.551-0.449-1-1-1H8C7.449,0,7,0.449,7,1v0.496   C4.813,2.102,3.395,3.387,3,6c-0.157,1.039-1,6.036-1,8c0,2.886,0,6,0,6c0,1.656,1.344,2,3,2h14c1.656,0,3-0.344,3-2   c0,0,0-2.636,0-6C22,12.002,21.104,6.693,21,6z M9,1h6c0.552,0,0.552,1,0,1H9C8.448,2,8.448,1,9,1z M6.5,19.266   c-0.976,0-1.766-0.79-1.766-1.766s0.79-1.766,1.766-1.766c0.975,0,1.766,0.79,1.766,1.766S7.475,19.266,6.5,19.266z M17.5,19.266   c-0.976,0-1.766-0.79-1.766-1.766s0.79-1.766,1.766-1.766c0.975,0,1.766,0.79,1.766,1.766S18.475,19.266,17.5,19.266z M18.59,12   H5.41c-0.53,0-1-0.453-1-0.969s0.069-1.582,0.567-3.733C5.733,4.034,5.553,3.938,12,3.938s6.267,0.097,7.022,3.36   c0.498,2.151,0.567,3.218,0.567,3.733S19.12,12,18.59,12z" data-original="#030104" class="active-path" data-old_color="#030104" fill="#1081E0"/>
</g></g> </svg>
